<svg version="1.0" preserveAspectRatio="xMidYMid meet" viewBox="94.2077625588697 19.06260950105774 375.7947409733124 187.60314948964017" zoomAndPan="magnify" xmlns:xlink="http://www.w3.org/1999/xlink" xmlns="http://www.w3.org/2000/svg" style="max-height: 500px" width="375.7947409733124" height="187.60314948964017"><defs><g/></defs><g fill-opacity="1" fill="#1e293d"><g transform="translate(108.058619, 142.028633)"><g><path d="M 23.515625 -73.390625 L 0.59375 -73.390625 L 0.59375 -84.609375 L 58.953125 -84.609375 L 58.953125 -73.390625 L 35.921875 -73.390625 L 35.921875 0 L 23.515625 0 Z M 23.515625 -73.390625"/></g></g></g><g fill-opacity="1" fill="#1e293d"><g transform="translate(170.353267, 142.028633)"><g><path d="M 76.5 0 L 60.859375 0 L 34.25 -36.515625 L 19.453125 -36.515625 L 19.453125 0 L 6.921875 0 L 6.921875 -84.609375 L 41.296875 -84.609375 C 44.640625 -84.609375 47.800781 -83.972656 50.78125 -82.703125 C 53.757812 -81.429688 56.34375 -79.71875 58.53125 -77.5625 C 60.71875 -75.414062 62.445312 -72.890625 63.71875 -69.984375 C 65 -67.085938 65.640625 -63.96875 65.640625 -60.625 C 65.640625 -57.84375 65.203125 -55.21875 64.328125 -52.75 C 63.453125 -50.28125 62.238281 -48.050781 60.6875 -46.0625 C 59.132812 -44.070312 57.285156 -42.34375 55.140625 -40.875 C 52.992188 -39.40625 50.644531 -38.3125 48.09375 -37.59375 Z M 41.296875 -48.21875 C 42.960938 -48.21875 44.550781 -48.554688 46.0625 -49.234375 C 47.570312 -49.910156 48.863281 -50.800781 49.9375 -51.90625 C 51.019531 -53.019531 51.878906 -54.351562 52.515625 -55.90625 C 53.148438 -57.457031 53.46875 -59.109375 53.46875 -60.859375 C 53.46875 -62.609375 53.148438 -64.238281 52.515625 -65.75 C 51.878906 -67.269531 51.019531 -68.601562 49.9375 -69.75 C 48.863281 -70.90625 47.570312 -71.820312 46.0625 -72.5 C 44.550781 -73.175781 42.960938 -73.515625 41.296875 -73.515625 L 19.453125 -73.515625 L 19.453125 -48.09375 Z M 41.296875 -48.21875"/></g></g></g><g fill-opacity="1" fill="#1e293d"><g transform="translate(248.63927, 142.028633)"><g><path d="M 30.90625 -39.625 L 1.078125 -84.609375 L 15.984375 -84.609375 L 37.109375 -52.875 L 58.234375 -84.609375 L 73.28125 -84.609375 L 43.4375 -39.625 L 43.4375 0 L 30.90625 0 Z M 30.90625 -39.625"/></g></g></g><g fill-opacity="1" fill="#1e293d"><g transform="translate(323.464452, 142.028633)"><g><path d="M 63.140625 -23.75 C 63.140625 -20.164062 62.421875 -16.84375 60.984375 -13.78125 C 59.554688 -10.71875 57.445312 -8.035156 54.65625 -5.734375 C 49.164062 -1.117188 42.125 1.1875 33.53125 1.1875 C 26.851562 1.1875 20.804688 -0.179688 15.390625 -2.921875 C 9.984375 -5.671875 6.007812 -9.351562 3.46875 -13.96875 L 14.078125 -19.453125 C 15.671875 -16.585938 18.195312 -14.378906 21.65625 -12.828125 C 25.125 -11.273438 29.082031 -10.5 33.53125 -10.5 C 45.070312 -10.5 50.84375 -14.914062 50.84375 -23.75 C 50.84375 -25.414062 50.539062 -26.847656 49.9375 -28.046875 C 49.34375 -29.242188 48.453125 -30.359375 47.265625 -31.390625 C 44.398438 -33.773438 39.265625 -35.921875 31.859375 -37.828125 C 27.410156 -38.941406 23.632812 -40.175781 20.53125 -41.53125 C 17.425781 -42.882812 14.835938 -44.476562 12.765625 -46.3125 C 7.753906 -50.363281 5.25 -55.734375 5.25 -62.421875 C 5.25 -65.753906 5.90625 -68.875 7.21875 -71.78125 C 8.53125 -74.6875 10.378906 -77.210938 12.765625 -79.359375 C 15.234375 -81.503906 18.117188 -83.113281 21.421875 -84.1875 C 24.722656 -85.269531 28.363281 -85.8125 32.34375 -85.8125 C 38.144531 -85.8125 43.492188 -84.695312 48.390625 -82.46875 C 53.285156 -80.238281 57.003906 -77.09375 59.546875 -73.03125 L 49.890625 -67.078125 C 47.578125 -69.859375 44.910156 -71.820312 41.890625 -72.96875 C 38.867188 -74.125 35.6875 -74.703125 32.34375 -74.703125 C 29.957031 -74.703125 27.769531 -74.304688 25.78125 -73.515625 C 23.789062 -72.722656 22.117188 -71.769531 20.765625 -70.65625 C 19.648438 -69.695312 18.832031 -68.519531 18.3125 -67.125 C 17.800781 -65.738281 17.546875 -64.25 17.546875 -62.65625 C 17.546875 -61.625 17.703125 -60.566406 18.015625 -59.484375 C 18.335938 -58.410156 19.09375 -57.296875 20.28125 -56.140625 C 21.476562 -54.992188 23.226562 -53.882812 25.53125 -52.8125 C 27.84375 -51.738281 30.988281 -50.679688 34.96875 -49.640625 C 39.738281 -48.453125 43.753906 -47.160156 47.015625 -45.765625 C 50.285156 -44.378906 53.03125 -42.726562 55.25 -40.8125 C 60.507812 -36.519531 63.140625 -30.832031 63.140625 -23.75 Z M 63.140625 -23.75"/></g></g></g><g fill-opacity="1" fill="#1e293d"><g transform="translate(392.680721, 142.028633)"><g><path d="M 23.515625 -73.390625 L 0.59375 -73.390625 L 0.59375 -84.609375 L 58.953125 -84.609375 L 58.953125 -73.390625 L 35.921875 -73.390625 L 35.921875 0 L 23.515625 0 Z M 23.515625 -73.390625"/></g></g></g><g fill-opacity="1" fill="#d3e9ff"><g transform="translate(135.483908, 184.563912)"><g><path d="M 6.234375 -7.828125 L 4.171875 -5.6875 L 4.171875 0 L 1.953125 0 L 1.953125 -16.828125 L 4.171875 -16.828125 L 4.171875 -8.5 L 11.65625 -16.828125 L 14.328125 -16.828125 L 7.703125 -9.390625 L 14.859375 0 L 12.1875 0 Z M 6.234375 -7.828125"/></g></g></g><g fill-opacity="1" fill="#d3e9ff"><g transform="translate(154.299118, 184.563912)"><g><path d="M 4.8125 -16.828125 L 10.328125 -3.09375 L 15.828125 -16.828125 L 18.703125 -16.828125 L 18.703125 0 L 16.484375 0 L 16.484375 -6.546875 L 16.6875 -13.625 L 11.171875 0 L 9.46875 0 L 3.953125 -13.59375 L 4.171875 -6.546875 L 4.171875 0 L 1.953125 0 L 1.953125 -16.828125 Z M 4.8125 -16.828125"/></g></g></g><g fill-opacity="1" fill="#d3e9ff"><g transform="translate(178.938311, 184.563912)"><g><path d="M 7.53125 -2.953125 L 12.328125 -16.828125 L 14.765625 -16.828125 L 8.515625 0 L 6.546875 0 L 0.328125 -16.828125 L 2.734375 -16.828125 Z M 7.53125 -2.953125"/></g></g></g><g fill-opacity="1" fill="#d3e9ff"><g transform="translate(197.973079, 184.563912)"><g><path d="M 1.765625 -12.09375 L 0.5625 -12.921875 C 1.269531 -13.921875 1.640625 -14.976562 1.671875 -16.09375 L 1.671875 -17.75 L 3.78125 -17.75 L 3.78125 -16.25 C 3.769531 -15.476562 3.578125 -14.707031 3.203125 -13.9375 C 2.828125 -13.175781 2.347656 -12.5625 1.765625 -12.09375 Z M 1.765625 -12.09375"/></g></g></g><g fill-opacity="1" fill="#d3e9ff"><g transform="translate(206.677208, 184.563912)"><g><path d="M 6.90625 -7.5 C 5.007812 -8.050781 3.625 -8.722656 2.75 -9.515625 C 1.882812 -10.316406 1.453125 -11.300781 1.453125 -12.46875 C 1.453125 -13.789062 1.984375 -14.882812 3.046875 -15.75 C 4.109375 -16.625 5.484375 -17.0625 7.171875 -17.0625 C 8.328125 -17.0625 9.359375 -16.835938 10.265625 -16.390625 C 11.171875 -15.941406 11.875 -15.320312 12.375 -14.53125 C 12.875 -13.75 13.125 -12.894531 13.125 -11.96875 L 10.890625 -11.96875 C 10.890625 -12.976562 10.566406 -13.773438 9.921875 -14.359375 C 9.273438 -14.941406 8.359375 -15.234375 7.171875 -15.234375 C 6.078125 -15.234375 5.222656 -14.992188 4.609375 -14.515625 C 4.003906 -14.035156 3.703125 -13.363281 3.703125 -12.5 C 3.703125 -11.820312 3.988281 -11.242188 4.5625 -10.765625 C 5.144531 -10.296875 6.132812 -9.863281 7.53125 -9.46875 C 8.9375 -9.070312 10.035156 -8.632812 10.828125 -8.15625 C 11.617188 -7.6875 12.203125 -7.132812 12.578125 -6.5 C 12.960938 -5.875 13.15625 -5.132812 13.15625 -4.28125 C 13.15625 -2.914062 12.625 -1.820312 11.5625 -1 C 10.5 -0.175781 9.078125 0.234375 7.296875 0.234375 C 6.140625 0.234375 5.054688 0.015625 4.046875 -0.421875 C 3.046875 -0.867188 2.273438 -1.476562 1.734375 -2.25 C 1.191406 -3.019531 0.921875 -3.894531 0.921875 -4.875 L 3.15625 -4.875 C 3.15625 -3.863281 3.53125 -3.0625 4.28125 -2.46875 C 5.03125 -1.875 6.035156 -1.578125 7.296875 -1.578125 C 8.460938 -1.578125 9.359375 -1.816406 9.984375 -2.296875 C 10.609375 -2.773438 10.921875 -3.425781 10.921875 -4.25 C 10.921875 -5.070312 10.628906 -5.707031 10.046875 -6.15625 C 9.472656 -6.613281 8.425781 -7.0625 6.90625 -7.5 Z M 6.90625 -7.5"/></g></g></g><g fill-opacity="1" fill="#d3e9ff"><g transform="translate(224.695086, 184.563912)"><g/></g></g><g fill-opacity="1" fill="#d3e9ff"><g transform="translate(234.531656, 184.563912)"><g><path d="M 11.25 -4.390625 L 4.203125 -4.390625 L 2.609375 0 L 0.328125 0 L 6.75 -16.828125 L 8.6875 -16.828125 L 15.125 0 L 12.859375 0 Z M 4.859375 -6.21875 L 10.59375 -6.21875 L 7.71875 -14.09375 Z M 4.859375 -6.21875"/></g></g></g><g fill-opacity="1" fill="#d3e9ff"><g transform="translate(253.94775, 184.563912)"><g><path d="M 14.890625 0 L 12.65625 0 L 4.1875 -12.96875 L 4.1875 0 L 1.953125 0 L 1.953125 -16.828125 L 4.1875 -16.828125 L 12.6875 -3.796875 L 12.6875 -16.828125 L 14.890625 -16.828125 Z M 14.890625 0"/></g></g></g><g fill-opacity="1" fill="#d3e9ff"><g transform="translate(274.79673, 184.563912)"><g><path d="M 14.890625 0 L 12.65625 0 L 4.1875 -12.96875 L 4.1875 0 L 1.953125 0 L 1.953125 -16.828125 L 4.1875 -16.828125 L 12.6875 -3.796875 L 12.6875 -16.828125 L 14.890625 -16.828125 Z M 14.890625 0"/></g></g></g><g fill-opacity="1" fill="#d3e9ff"><g transform="translate(295.645709, 184.563912)"><g><path d="M 13.796875 -16.828125 L 13.796875 -5.390625 C 13.796875 -3.796875 13.296875 -2.492188 12.296875 -1.484375 C 11.304688 -0.484375 9.96875 0.078125 8.28125 0.203125 L 7.6875 0.234375 C 5.84375 0.234375 4.375 -0.257812 3.28125 -1.25 C 2.1875 -2.25 1.632812 -3.617188 1.625 -5.359375 L 1.625 -16.828125 L 3.8125 -16.828125 L 3.8125 -5.4375 C 3.8125 -4.21875 4.144531 -3.269531 4.8125 -2.59375 C 5.488281 -1.914062 6.445312 -1.578125 7.6875 -1.578125 C 8.945312 -1.578125 9.90625 -1.910156 10.5625 -2.578125 C 11.226562 -3.253906 11.5625 -4.203125 11.5625 -5.421875 L 11.5625 -16.828125 Z M 13.796875 -16.828125"/></g></g></g><g fill-opacity="1" fill="#d3e9ff"><g transform="translate(314.96936, 184.563912)"><g><path d="M 11.25 -4.390625 L 4.203125 -4.390625 L 2.609375 0 L 0.328125 0 L 6.75 -16.828125 L 8.6875 -16.828125 L 15.125 0 L 12.859375 0 Z M 4.859375 -6.21875 L 10.59375 -6.21875 L 7.71875 -14.09375 Z M 4.859375 -6.21875"/></g></g></g><g fill-opacity="1" fill="#d3e9ff"><g transform="translate(334.385466, 184.563912)"><g><path d="M 4.1875 -1.8125 L 12.15625 -1.8125 L 12.15625 0 L 1.953125 0 L 1.953125 -16.828125 L 4.1875 -16.828125 Z M 4.1875 -1.8125"/></g></g></g><g fill-opacity="1" fill="#d3e9ff"><g transform="translate(351.09757, 184.563912)"><g/></g></g><g fill-opacity="1" fill="#d3e9ff"><g transform="translate(360.934151, 184.563912)"><g><path d="M 11.234375 -7.4375 L 4.171875 -7.4375 L 4.171875 0 L 1.953125 0 L 1.953125 -16.828125 L 12.375 -16.828125 L 12.375 -15 L 4.171875 -15 L 4.171875 -9.25 L 11.234375 -9.25 Z M 11.234375 -7.4375"/></g></g></g><g fill-opacity="1" fill="#d3e9ff"><g transform="translate(377.99292, 184.563912)"><g><path d="M 11.46875 -7.78125 L 4.171875 -7.78125 L 4.171875 -1.8125 L 12.640625 -1.8125 L 12.640625 0 L 1.953125 0 L 1.953125 -16.828125 L 12.53125 -16.828125 L 12.53125 -15 L 4.171875 -15 L 4.171875 -9.59375 L 11.46875 -9.59375 Z M 11.46875 -7.78125"/></g></g></g><g fill-opacity="1" fill="#d3e9ff"><g transform="translate(395.421466, 184.563912)"><g><path d="M 6.90625 -7.5 C 5.007812 -8.050781 3.625 -8.722656 2.75 -9.515625 C 1.882812 -10.316406 1.453125 -11.300781 1.453125 -12.46875 C 1.453125 -13.789062 1.984375 -14.882812 3.046875 -15.75 C 4.109375 -16.625 5.484375 -17.0625 7.171875 -17.0625 C 8.328125 -17.0625 9.359375 -16.835938 10.265625 -16.390625 C 11.171875 -15.941406 11.875 -15.320312 12.375 -14.53125 C 12.875 -13.75 13.125 -12.894531 13.125 -11.96875 L 10.890625 -11.96875 C 10.890625 -12.976562 10.566406 -13.773438 9.921875 -14.359375 C 9.273438 -14.941406 8.359375 -15.234375 7.171875 -15.234375 C 6.078125 -15.234375 5.222656 -14.992188 4.609375 -14.515625 C 4.003906 -14.035156 3.703125 -13.363281 3.703125 -12.5 C 3.703125 -11.820312 3.988281 -11.242188 4.5625 -10.765625 C 5.144531 -10.296875 6.132812 -9.863281 7.53125 -9.46875 C 8.9375 -9.070312 10.035156 -8.632812 10.828125 -8.15625 C 11.617188 -7.6875 12.203125 -7.132812 12.578125 -6.5 C 12.960938 -5.875 13.15625 -5.132812 13.15625 -4.28125 C 13.15625 -2.914062 12.625 -1.820312 11.5625 -1 C 10.5 -0.175781 9.078125 0.234375 7.296875 0.234375 C 6.140625 0.234375 5.054688 0.015625 4.046875 -0.421875 C 3.046875 -0.867188 2.273438 -1.476562 1.734375 -2.25 C 1.191406 -3.019531 0.921875 -3.894531 0.921875 -4.875 L 3.15625 -4.875 C 3.15625 -3.863281 3.53125 -3.0625 4.28125 -2.46875 C 5.03125 -1.875 6.035156 -1.578125 7.296875 -1.578125 C 8.460938 -1.578125 9.359375 -1.816406 9.984375 -2.296875 C 10.609375 -2.773438 10.921875 -3.425781 10.921875 -4.25 C 10.921875 -5.070312 10.628906 -5.707031 10.046875 -6.15625 C 9.472656 -6.613281 8.425781 -7.0625 6.90625 -7.5 Z M 6.90625 -7.5"/></g></g></g><g fill-opacity="1" fill="#d3e9ff"><g transform="translate(413.439354, 184.563912)"><g><path d="M 13.578125 -15 L 8.171875 -15 L 8.171875 0 L 5.96875 0 L 5.96875 -15 L 0.5625 -15 L 0.5625 -16.828125 L 13.578125 -16.828125 Z M 13.578125 -15"/></g></g></g></svg>